<svg id="Capa_1" data-name="Capa 1" xmlns="http://www.w3.org/2000/svg" viewBox="0 0 143.42 122.42"><defs><style>.cls-1{fill:#ebe55b;}</style></defs><title>quotes</title><path class="cls-1" d="M299.54,218.7q-32.66,15.93-32.66,37.44,14.07,1.59,23.1,11.29a33.07,33.07,0,0,1,.13,45.28A29.43,29.43,0,0,1,267.94,322q-14.87,0-25.63-12.08t-10.75-29.34q0-51.78,57.62-81Zm75.44,0q-32.4,15.93-32.4,37.44a35.77,35.77,0,0,1,22.84,11.29,31.93,31.93,0,0,1,9,22.44q0,13.54-8.76,22.84a29,29,0,0,1-22,9.29q-14.87,0-25.76-12.08T307,280.58q0-51.78,57.89-81Z" transform="translate(-231.56 -199.58)"/></svg>